<svg width="32" height="32" viewBox="0 0 32 32" fill="none" xmlns="http://www.w3.org/2000/svg">
<path d="M16 16C14.5333 16 13.2778 15.4778 12.2333 14.4333C11.1889 13.3889 10.6666 12.1333 10.6666 10.6667C10.6666 9.20001 11.1889 7.94445 12.2333 6.90001C13.2778 5.85557 14.5333 5.33334 16 5.33334C17.4666 5.33334 18.7222 5.85557 19.7666 6.90001C20.8111 7.94445 21.3333 9.20001 21.3333 10.6667C21.3333 12.1333 20.8111 13.3889 19.7666 14.4333C18.7222 15.4778 17.4666 16 16 16ZM5.33331 26.6667V22.9333C5.33331 22.1778 5.52776 21.4833 5.91665 20.85C6.30554 20.2167 6.8222 19.7333 7.46665 19.4C8.84442 18.7111 10.2444 18.1945 11.6666 17.85C13.0889 17.5056 14.5333 17.3333 16 17.3333C17.4666 17.3333 18.9111 17.5056 20.3333 17.85C21.7555 18.1945 23.1555 18.7111 24.5333 19.4C25.1778 19.7333 25.6944 20.2167 26.0833 20.85C26.4722 21.4833 26.6666 22.1778 26.6666 22.9333V26.6667H5.33331Z" fill="#979797"/>
</svg>
